<svg width="480pt" height="290pt" viewBox="0 0 480 290" version="1.1" xmlns="http://www.w3.org/2000/svg" xmlns:xlink="http://www.w3.org/1999/xlink" xmlns:xml="http://www.w3.org/XML/1998/namespace">
  <g id="surface2" transform="matrix(1.2089238166809082,0,0,1.2089238166809082,-178.25,12)">
    <path style=" stroke:none;fill-rule:evenodd;fill:rgb(0.000000%,66.274364%,79.607668%);fill-opacity:1;" d="M 233.050781 97.699219 C 233.750000 97.398438 234.234375 96.933594 234.500000 96.300781 C 234.765625 95.632812 234.765625 94.949219 234.500000 94.250000 C 234.199219 93.582031 233.714844 93.117188 233.050781 92.851562 C 232.417969 92.582031 231.750000 92.582031 231.050781 92.851562 C 230.382812 93.148438 229.917969 93.617188 229.648438 94.250000 C 229.382812 94.882812 229.382812 95.550781 229.648438 96.250000 C 229.949219 96.949219 230.417969 97.433594 231.050781 97.699219 C 231.683594 97.964844 232.351562 97.964844 233.050781 97.699219 M 219.648438 122.851562 C 219.785156 123.148438 219.984375 123.351562 220.250000 123.449219 C 220.515625 123.582031 220.800781 123.601562 221.101562 123.500000 C 221.398438 123.367188 221.617188 123.148438 221.750000 122.851562 C 221.851562 122.582031 221.851562 122.300781 221.750000 122.000000 C 221.617188 121.699219 221.417969 121.500000 221.148438 121.398438 C 220.851562 121.265625 220.550781 121.265625 220.250000 121.398438 C 219.984375 121.535156 219.785156 121.734375 219.648438 122.000000 C 219.550781 122.265625 219.550781 122.550781 219.648438 122.851562 M 246.601562 98.398438 C 247.464844 98.734375 248.316406 98.734375 249.148438 98.398438 C 249.984375 98.035156 250.601562 97.417969 251.000000 96.550781 C 251.332031 95.648438 251.316406 94.785156 250.949219 93.949219 C 250.617188 93.117188 250.015625 92.515625 249.148438 92.148438 C 248.250000 91.816406 247.382812 91.816406 246.550781 92.148438 C 245.714844 92.484375 245.101562 93.101562 244.699219 94.000000 C 244.367188 94.898438 244.382812 95.750000 244.750000 96.550781 C 245.082031 97.382812 245.699219 98.000000 246.601562 98.398438 M 218.949219 105.949219 C 218.750000 106.449219 218.750000 106.917969 218.949219 107.351562 C 219.148438 107.816406 219.500000 108.167969 220.000000 108.398438 C 220.500000 108.566406 220.964844 108.566406 221.398438 108.398438 C 221.867188 108.199219 222.214844 107.851562 222.449219 107.351562 C 222.617188 106.851562 222.601562 106.367188 222.398438 105.898438 C 222.234375 105.464844 221.898438 105.132812 221.398438 104.898438 C 220.898438 104.699219 220.417969 104.699219 219.949219 104.898438 C 219.484375 105.101562 219.148438 105.449219 218.949219 105.949219 M 239.949219 96.699219 C 240.816406 96.667969 241.535156 96.382812 242.101562 95.851562 C 242.667969 95.285156 242.949219 94.566406 242.949219 93.699219 C 242.949219 92.867188 242.667969 92.167969 242.101562 91.601562 C 241.535156 91.035156 240.816406 90.734375 239.949219 90.699219 C 239.117188 90.734375 238.417969 91.035156 237.851562 91.601562 C 237.285156 92.167969 236.984375 92.867188 236.949219 93.699219 C 236.984375 94.566406 237.285156 95.285156 237.851562 95.851562 C 238.417969 96.417969 239.117188 96.699219 239.949219 96.699219 M 217.648438 114.550781 C 217.648438 114.949219 217.800781 115.300781 218.101562 115.601562 C 218.367188 115.867188 218.714844 116.015625 219.148438 116.050781 C 219.582031 116.015625 219.933594 115.867188 220.199219 115.601562 C 220.464844 115.300781 220.617188 114.949219 220.648438 114.550781 C 220.617188 114.117188 220.464844 113.750000 220.199219 113.449219 C 219.898438 113.183594 219.550781 113.050781 219.148438 113.050781 C 218.714844 113.050781 218.367188 113.183594 218.101562 113.449219 C 217.800781 113.750000 217.648438 114.117188 217.648438 114.550781 M 252.050781 102.449219 C 252.816406 103.183594 253.699219 103.550781 254.699219 103.550781 C 255.699219 103.550781 256.582031 103.183594 257.351562 102.449219 C 258.082031 101.683594 258.449219 100.800781 258.449219 99.800781 C 258.449219 98.800781 258.082031 97.917969 257.351562 97.148438 C 256.582031 96.417969 255.699219 96.050781 254.699219 96.050781 C 253.699219 96.050781 252.816406 96.417969 252.050781 97.148438 C 251.316406 97.917969 250.949219 98.800781 250.949219 99.800781 C 250.949219 100.800781 251.316406 101.683594 252.050781 102.449219 M 223.648438 98.199219 C 223.214844 98.667969 223.000000 99.199219 223.000000 99.800781 C 223.000000 100.398438 223.214844 100.933594 223.648438 101.398438 C 224.117188 101.832031 224.648438 102.050781 225.250000 102.050781 C 225.851562 102.050781 226.382812 101.832031 226.851562 101.398438 C 227.285156 100.933594 227.500000 100.398438 227.500000 99.800781 C 227.500000 99.199219 227.285156 98.667969 226.851562 98.199219 C 226.382812 97.765625 225.851562 97.550781 225.250000 97.550781 C 224.648438 97.550781 224.117188 97.765625 223.648438 98.199219 M 214.351562 103.851562 C 214.785156 102.785156 214.800781 101.750000 214.398438 100.750000 C 213.964844 99.785156 213.234375 99.066406 212.199219 98.601562 C 211.132812 98.167969 210.117188 98.167969 209.148438 98.601562 C 208.148438 99.000000 207.417969 99.714844 206.949219 100.750000 C 206.550781 101.816406 206.550781 102.832031 206.949219 103.800781 C 207.351562 104.800781 208.066406 105.535156 209.101562 106.000000 C 210.167969 106.398438 211.199219 106.398438 212.199219 106.000000 C 213.167969 105.601562 213.882812 104.882812 214.351562 103.851562 M 227.101562 145.500000 C 227.535156 145.667969 227.964844 145.667969 228.398438 145.500000 C 228.832031 145.332031 229.132812 145.015625 229.300781 144.550781 C 229.500000 144.117188 229.515625 143.683594 229.351562 143.250000 C 229.148438 142.816406 228.832031 142.500000 228.398438 142.300781 C 227.933594 142.132812 227.500000 142.132812 227.101562 142.300781 C 226.667969 142.464844 226.351562 142.785156 226.148438 143.250000 C 225.984375 143.683594 225.984375 144.117188 226.148438 144.550781 C 226.316406 144.984375 226.632812 145.300781 227.101562 145.500000 M 229.699219 90.000000 C 231.035156 89.398438 231.964844 88.464844 232.500000 87.199219 C 233.000000 85.898438 232.984375 84.582031 232.449219 83.250000 C 231.851562 81.917969 230.917969 80.984375 229.648438 80.449219 C 228.382812 79.917969 227.082031 79.917969 225.750000 80.449219 C 224.417969 81.050781 223.484375 81.984375 222.949219 83.250000 C 222.417969 84.550781 222.417969 85.867188 222.949219 87.199219 C 223.550781 88.535156 224.484375 89.464844 225.750000 90.000000 C 227.015625 90.535156 228.332031 90.535156 229.699219 90.000000 M 208.050781 127.949219 C 208.382812 128.683594 208.898438 129.199219 209.601562 129.500000 C 210.300781 129.800781 211.035156 129.800781 211.800781 129.500000 C 212.535156 129.167969 213.050781 128.648438 213.351562 127.949219 C 213.617188 127.250000 213.601562 126.515625 213.300781 125.750000 C 212.964844 125.015625 212.449219 124.500000 211.750000 124.199219 C 211.050781 123.898438 210.316406 123.898438 209.550781 124.199219 C 208.816406 124.535156 208.300781 125.050781 208.000000 125.750000 C 207.734375 126.484375 207.750000 127.214844 208.050781 127.949219 M 220.750000 95.300781 C 221.648438 94.367188 222.101562 93.285156 222.101562 92.050781 C 222.101562 90.851562 221.648438 89.785156 220.750000 88.851562 C 219.816406 87.949219 218.734375 87.500000 217.500000 87.500000 C 216.300781 87.500000 215.234375 87.949219 214.300781 88.851562 C 213.398438 89.785156 212.949219 90.851562 212.949219 92.050781 C 212.949219 93.285156 213.398438 94.367188 214.300781 95.300781 C 215.234375 96.199219 216.316406 96.648438 217.550781 96.648438 C 218.750000 96.648438 219.816406 96.199219 220.750000 95.300781 M 215.898438 138.648438 C 216.367188 139.117188 216.898438 139.351562 217.500000 139.351562 C 218.132812 139.351562 218.683594 139.117188 219.148438 138.648438 C 219.582031 138.183594 219.800781 137.648438 219.800781 137.050781 C 219.800781 136.449219 219.582031 135.917969 219.148438 135.449219 C 218.683594 134.984375 218.132812 134.750000 217.500000 134.750000 C 216.898438 134.750000 216.367188 134.984375 215.898438 135.449219 C 215.464844 135.917969 215.250000 136.449219 215.250000 137.050781 C 215.250000 137.648438 215.464844 138.183594 215.898438 138.648438 M 240.000000 88.500000 C 241.632812 88.464844 242.984375 87.898438 244.050781 86.800781 C 245.148438 85.734375 245.714844 84.382812 245.750000 82.750000 C 245.714844 81.117188 245.148438 79.765625 244.050781 78.699219 C 242.984375 77.632812 241.632812 77.066406 240.000000 77.000000 C 238.367188 77.066406 237.015625 77.632812 235.949219 78.699219 C 234.882812 79.765625 234.332031 81.117188 234.300781 82.750000 C 234.332031 84.382812 234.882812 85.734375 235.949219 86.800781 C 237.015625 87.867188 238.367188 88.433594 240.000000 88.500000 M 204.750000 114.550781 C 204.785156 115.515625 205.117188 116.332031 205.750000 117.000000 C 206.417969 117.632812 207.234375 117.964844 208.199219 118.000000 C 209.167969 117.964844 209.984375 117.632812 210.648438 117.000000 C 211.285156 116.332031 211.617188 115.515625 211.648438 114.550781 C 211.617188 113.582031 211.285156 112.785156 210.648438 112.148438 C 209.984375 111.484375 209.167969 111.132812 208.199219 111.101562 C 207.234375 111.132812 206.417969 111.464844 205.750000 112.101562 C 205.117188 112.765625 204.785156 113.582031 204.750000 114.550781 M 202.300781 130.050781 C 201.632812 128.515625 200.566406 127.449219 199.101562 126.851562 C 197.667969 126.214844 196.167969 126.199219 194.601562 126.800781 C 193.066406 127.464844 192.000000 128.535156 191.398438 130.000000 C 190.800781 131.433594 190.800781 132.933594 191.398438 134.500000 C 192.066406 136.035156 193.117188 137.101562 194.550781 137.699219 C 196.015625 138.300781 197.535156 138.316406 199.101562 137.750000 C 200.632812 137.082031 201.699219 136.015625 202.300781 134.550781 C 202.898438 133.117188 202.898438 131.617188 202.300781 130.050781 M 258.800781 160.101562 C 259.464844 159.832031 259.917969 159.382812 260.148438 158.750000 C 260.417969 158.148438 260.417969 157.515625 260.148438 156.851562 C 259.882812 156.183594 259.433594 155.714844 258.800781 155.449219 C 258.199219 155.183594 257.550781 155.183594 256.851562 155.449219 C 256.214844 155.750000 255.765625 156.199219 255.500000 156.800781 C 255.234375 157.433594 255.234375 158.082031 255.500000 158.750000 C 255.800781 159.417969 256.250000 159.867188 256.851562 160.101562 C 257.484375 160.367188 258.132812 160.367188 258.800781 160.101562 M 203.851562 99.699219 C 204.382812 98.398438 204.550781 97.082031 204.351562 95.750000 C 204.148438 94.449219 203.648438 93.265625 202.851562 92.199219 C 202.050781 91.167969 201.000000 90.367188 199.699219 89.800781 C 198.398438 89.265625 197.082031 89.101562 195.750000 89.300781 C 194.449219 89.500000 193.265625 90.000000 192.199219 90.800781 C 191.167969 91.601562 190.367188 92.648438 189.800781 93.949219 C 189.265625 95.250000 189.101562 96.566406 189.300781 97.898438 C 189.500000 99.199219 190.000000 100.382812 190.800781 101.449219 C 191.601562 102.484375 192.648438 103.285156 193.949219 103.851562 C 195.250000 104.351562 196.566406 104.515625 197.898438 104.351562 C 199.199219 104.148438 200.382812 103.648438 201.449219 102.851562 C 202.484375 102.050781 203.285156 101.000000 203.851562 99.699219 M 220.800781 161.699219 C 221.898438 162.132812 222.964844 162.132812 224.000000 161.699219 C 225.035156 161.265625 225.800781 160.500000 226.300781 159.398438 C 226.699219 158.265625 226.683594 157.183594 226.250000 156.148438 C 225.816406 155.117188 225.050781 154.367188 223.949219 153.898438 C 222.851562 153.464844 221.785156 153.464844 220.750000 153.898438 C 219.714844 154.332031 218.964844 155.101562 218.500000 156.199219 C 218.066406 157.300781 218.066406 158.367188 218.500000 159.398438 C 218.933594 160.433594 219.699219 161.199219 220.800781 161.699219 M 200.101562 114.550781 C 200.035156 112.617188 199.367188 111.015625 198.101562 109.750000 C 196.832031 108.484375 195.250000 107.832031 193.351562 107.800781 C 191.449219 107.832031 189.867188 108.484375 188.601562 109.750000 C 187.300781 111.015625 186.632812 112.617188 186.601562 114.550781 C 186.632812 116.449219 187.300781 118.035156 188.601562 119.300781 C 189.867188 120.566406 191.449219 121.214844 193.351562 121.250000 C 195.250000 121.214844 196.832031 120.566406 198.101562 119.300781 C 199.367188 118.035156 200.035156 116.449219 200.101562 114.550781 M 240.101562 164.648438 C 241.035156 164.617188 241.816406 164.285156 242.449219 163.648438 C 243.082031 163.015625 243.417969 162.234375 243.449219 161.300781 C 243.417969 160.332031 243.082031 159.535156 242.449219 158.898438 C 241.816406 158.265625 241.035156 157.933594 240.101562 157.898438 C 239.132812 157.933594 238.332031 158.265625 237.699219 158.898438 C 237.066406 159.535156 236.734375 160.332031 236.699219 161.300781 C 236.734375 162.234375 237.066406 163.015625 237.699219 163.648438 C 238.332031 164.285156 239.132812 164.617188 240.101562 164.648438 M 213.000000 87.449219 C 214.101562 86.316406 214.832031 85.035156 215.199219 83.601562 C 215.566406 82.199219 215.566406 80.785156 215.199219 79.351562 C 214.832031 77.917969 214.101562 76.632812 213.000000 75.500000 C 211.867188 74.398438 210.582031 73.667969 209.148438 73.300781 C 207.750000 72.933594 206.332031 72.933594 204.898438 73.300781 C 203.464844 73.667969 202.199219 74.398438 201.101562 75.500000 C 200.000000 76.632812 199.265625 77.917969 198.898438 79.351562 C 198.535156 80.750000 198.535156 82.167969 198.898438 83.601562 C 199.265625 85.035156 200.000000 86.316406 201.101562 87.449219 C 202.199219 88.550781 203.464844 89.285156 204.898438 89.648438 C 206.332031 89.984375 207.750000 89.984375 209.148438 89.648438 C 210.582031 89.285156 211.867188 88.550781 213.000000 87.449219 M 203.449219 144.000000 C 204.484375 143.035156 205.683594 142.550781 207.050781 142.550781 C 208.382812 142.550781 209.566406 143.035156 210.601562 144.000000 C 211.601562 145.035156 212.101562 146.234375 212.101562 147.601562 C 212.101562 148.933594 211.601562 150.117188 210.601562 151.148438 C 209.566406 152.148438 208.382812 152.648438 207.050781 152.648438 C 205.683594 152.648438 204.484375 152.148438 203.449219 151.148438 C 202.484375 150.117188 202.000000 148.933594 202.000000 147.601562 C 202.000000 146.234375 202.484375 145.035156 203.449219 144.000000 "/>
    <path style=" stroke:none;fill-rule:evenodd;fill:rgb(0.000000%,18.823488%,39.607756%);fill-opacity:1;" d="M 246.898438 131.250000 C 246.234375 131.550781 245.765625 132.015625 245.500000 132.648438 C 245.199219 133.316406 245.183594 134.000000 245.449219 134.699219 C 245.750000 135.367188 246.234375 135.832031 246.898438 136.101562 C 247.535156 136.367188 248.199219 136.367188 248.898438 136.101562 C 249.566406 135.800781 250.035156 135.332031 250.300781 134.699219 C 250.601562 134.066406 250.617188 133.398438 250.351562 132.699219 C 250.050781 132.000000 249.566406 131.515625 248.898438 131.250000 C 248.265625 130.984375 247.601562 130.984375 246.898438 131.250000 M 260.300781 106.101562 C 260.167969 105.800781 259.964844 105.601562 259.699219 105.500000 C 259.433594 105.367188 259.148438 105.351562 258.851562 105.449219 C 258.550781 105.582031 258.351562 105.785156 258.250000 106.050781 C 258.117188 106.351562 258.101562 106.648438 258.199219 106.949219 C 258.332031 107.250000 258.550781 107.449219 258.851562 107.550781 C 259.117188 107.648438 259.398438 107.648438 259.699219 107.550781 C 260.000000 107.417969 260.199219 107.214844 260.300781 106.949219 C 260.433594 106.683594 260.433594 106.398438 260.300781 106.101562 M 233.398438 130.550781 C 232.500000 130.214844 231.632812 130.214844 230.800781 130.550781 C 229.964844 130.917969 229.367188 131.535156 229.000000 132.398438 C 228.667969 133.300781 228.667969 134.167969 229.000000 135.000000 C 229.332031 135.832031 229.949219 136.433594 230.851562 136.800781 C 231.750000 137.132812 232.601562 137.132812 233.398438 136.800781 C 234.234375 136.464844 234.851562 135.851562 235.250000 134.949219 C 235.582031 134.050781 235.566406 133.199219 235.199219 132.398438 C 234.867188 131.566406 234.265625 130.949219 233.398438 130.550781 M 261.000000 123.000000 C 261.199219 122.500000 261.199219 122.035156 261.000000 121.601562 C 260.800781 121.132812 260.464844 120.785156 260.000000 120.550781 C 259.500000 120.382812 259.015625 120.382812 258.550781 120.550781 C 258.082031 120.750000 257.750000 121.101562 257.550781 121.601562 C 257.351562 122.101562 257.351562 122.582031 257.550781 123.050781 C 257.750000 123.484375 258.082031 123.816406 258.550781 124.050781 C 259.050781 124.250000 259.535156 124.250000 260.000000 124.050781 C 260.464844 123.851562 260.800781 123.500000 261.000000 123.000000 M 240.000000 132.250000 C 239.132812 132.250000 238.417969 132.535156 237.851562 133.101562 C 237.316406 133.667969 237.035156 134.382812 237.000000 135.250000 C 237.035156 136.082031 237.316406 136.785156 237.851562 137.351562 C 238.417969 137.917969 239.132812 138.214844 240.000000 138.250000 C 240.867188 138.214844 241.566406 137.917969 242.101562 137.351562 C 242.667969 136.785156 242.964844 136.082031 243.000000 135.250000 C 242.964844 134.382812 242.667969 133.667969 242.101562 133.101562 C 241.566406 132.535156 240.867188 132.250000 240.000000 132.250000 M 262.300781 114.398438 C 262.300781 113.964844 262.167969 113.617188 261.898438 113.351562 C 261.601562 113.082031 261.234375 112.933594 260.800781 112.898438 C 260.398438 112.933594 260.050781 113.082031 259.750000 113.351562 C 259.484375 113.648438 259.332031 114.000000 259.300781 114.398438 C 259.332031 114.832031 259.484375 115.199219 259.750000 115.500000 C 260.050781 115.765625 260.398438 115.898438 260.800781 115.898438 C 261.234375 115.898438 261.601562 115.750000 261.898438 115.449219 C 262.167969 115.183594 262.300781 114.832031 262.300781 114.398438 M 227.949219 126.500000 C 227.183594 125.765625 226.300781 125.398438 225.300781 125.398438 C 224.300781 125.398438 223.398438 125.765625 222.601562 126.500000 C 221.867188 127.265625 221.500000 128.148438 221.500000 129.148438 C 221.500000 130.148438 221.867188 131.035156 222.601562 131.800781 C 223.367188 132.535156 224.250000 132.898438 225.250000 132.898438 C 226.250000 132.898438 227.148438 132.535156 227.949219 131.800781 C 228.683594 131.035156 229.050781 130.148438 229.050781 129.148438 C 229.050781 128.148438 228.683594 127.265625 227.949219 126.500000 M 256.300781 130.750000 C 256.734375 130.285156 256.949219 129.750000 256.949219 129.148438 C 256.949219 128.550781 256.734375 128.015625 256.300781 127.550781 C 255.832031 127.117188 255.300781 126.898438 254.699219 126.898438 C 254.132812 126.898438 253.617188 127.117188 253.148438 127.550781 C 252.714844 128.015625 252.484375 128.550781 252.449219 129.148438 C 252.449219 129.750000 252.683594 130.285156 253.148438 130.750000 C 253.617188 131.183594 254.132812 131.398438 254.699219 131.398438 C 255.300781 131.398438 255.832031 131.183594 256.300781 130.750000 M 265.601562 125.101562 C 265.167969 126.167969 265.167969 127.199219 265.601562 128.199219 C 266.000000 129.167969 266.714844 129.882812 267.750000 130.351562 C 268.816406 130.785156 269.832031 130.785156 270.800781 130.351562 C 271.800781 129.949219 272.535156 129.234375 273.000000 128.199219 C 273.398438 127.132812 273.398438 126.117188 273.000000 125.148438 C 272.601562 124.148438 271.882812 123.417969 270.851562 122.949219 C 269.785156 122.550781 268.750000 122.550781 267.750000 122.949219 C 266.785156 123.351562 266.066406 124.066406 265.601562 125.101562 M 252.898438 83.449219 C 252.433594 83.285156 251.984375 83.285156 251.550781 83.449219 C 251.148438 83.617188 250.851562 83.933594 250.648438 84.398438 C 250.449219 84.832031 250.449219 85.265625 250.648438 85.699219 C 250.816406 86.132812 251.117188 86.449219 251.550781 86.648438 C 252.015625 86.816406 252.449219 86.816406 252.851562 86.648438 C 253.285156 86.484375 253.601562 86.167969 253.800781 85.699219 C 253.964844 85.265625 253.964844 84.832031 253.800781 84.398438 C 253.632812 83.964844 253.332031 83.648438 252.898438 83.449219 M 250.250000 138.949219 C 248.917969 139.550781 247.984375 140.484375 247.449219 141.750000 C 246.949219 143.050781 246.964844 144.367188 247.500000 145.699219 C 248.101562 147.035156 249.035156 147.964844 250.300781 148.500000 C 251.566406 149.035156 252.882812 149.035156 254.250000 148.500000 C 255.582031 147.898438 256.500000 146.964844 257.000000 145.699219 C 257.535156 144.433594 257.535156 143.117188 257.000000 141.750000 C 256.398438 140.417969 255.464844 139.484375 254.199219 138.949219 C 252.933594 138.417969 251.617188 138.417969 250.250000 138.949219 M 271.898438 101.000000 C 271.566406 100.265625 271.050781 99.750000 270.351562 99.449219 C 269.648438 99.148438 268.917969 99.148438 268.148438 99.449219 C 267.417969 99.785156 266.917969 100.300781 266.648438 101.000000 C 266.351562 101.699219 266.351562 102.433594 266.648438 103.199219 C 266.984375 103.933594 267.500000 104.449219 268.199219 104.750000 C 268.898438 105.050781 269.632812 105.050781 270.398438 104.750000 C 271.132812 104.417969 271.648438 103.898438 271.949219 103.199219 C 272.214844 102.500000 272.199219 101.765625 271.898438 101.000000 M 259.199219 133.648438 C 258.300781 134.582031 257.851562 135.667969 257.851562 136.898438 C 257.851562 138.101562 258.300781 139.183594 259.199219 140.148438 C 260.132812 141.015625 261.214844 141.449219 262.449219 141.449219 C 263.648438 141.449219 264.734375 141.015625 265.699219 140.148438 C 266.601562 139.183594 267.035156 138.101562 267.000000 136.898438 C 267.000000 135.667969 266.566406 134.582031 265.699219 133.648438 C 264.734375 132.750000 263.648438 132.300781 262.449219 132.300781 C 261.214844 132.300781 260.132812 132.750000 259.199219 133.648438 M 264.050781 90.300781 C 263.582031 89.832031 263.050781 89.601562 262.449219 89.601562 C 261.816406 89.601562 261.265625 89.832031 260.800781 90.300781 C 260.367188 90.765625 260.148438 91.300781 260.148438 91.898438 C 260.148438 92.500000 260.367188 93.035156 260.800781 93.500000 C 261.265625 93.964844 261.816406 94.199219 262.449219 94.199219 C 263.050781 94.199219 263.582031 93.964844 264.050781 93.500000 C 264.515625 93.035156 264.750000 92.500000 264.750000 91.898438 C 264.750000 91.300781 264.515625 90.765625 264.050781 90.300781 M 239.949219 140.449219 C 238.316406 140.484375 236.964844 141.050781 235.898438 142.148438 C 234.832031 143.214844 234.265625 144.566406 234.199219 146.199219 C 234.234375 147.832031 234.800781 149.183594 235.898438 150.250000 C 236.964844 151.316406 238.316406 151.882812 239.949219 151.949219 C 241.582031 151.882812 242.933594 151.316406 244.000000 150.250000 C 245.066406 149.183594 245.632812 147.832031 245.699219 146.199219 C 245.632812 144.566406 245.066406 143.214844 244.000000 142.148438 C 242.933594 141.082031 241.582031 140.515625 239.949219 140.449219 M 275.199219 114.398438 C 275.167969 113.433594 274.832031 112.617188 274.199219 111.949219 C 273.535156 111.316406 272.714844 110.984375 271.750000 110.949219 C 270.785156 110.984375 269.964844 111.316406 269.300781 111.949219 C 268.667969 112.617188 268.332031 113.433594 268.300781 114.398438 C 268.332031 115.367188 268.667969 116.167969 269.300781 116.800781 C 269.964844 117.464844 270.785156 117.816406 271.750000 117.851562 C 272.714844 117.816406 273.535156 117.484375 274.199219 116.851562 C 274.832031 116.183594 275.167969 115.367188 275.199219 114.398438 M 277.648438 98.898438 C 278.316406 100.433594 279.382812 101.500000 280.851562 102.101562 C 282.285156 102.734375 283.785156 102.750000 285.351562 102.148438 C 286.882812 101.484375 287.949219 100.417969 288.550781 98.949219 C 289.148438 97.515625 289.167969 96.015625 288.601562 94.449219 C 287.898438 92.917969 286.832031 91.851562 285.398438 91.250000 C 283.964844 90.648438 282.464844 90.632812 280.898438 91.199219 C 279.367188 91.898438 278.300781 92.964844 277.699219 94.398438 C 277.066406 95.867188 277.050781 97.367188 277.648438 98.898438 M 221.148438 68.851562 C 220.515625 69.117188 220.066406 69.566406 219.800781 70.199219 C 219.535156 70.800781 219.535156 71.449219 219.800781 72.148438 C 220.101562 72.785156 220.550781 73.234375 221.148438 73.500000 C 221.785156 73.765625 222.433594 73.765625 223.101562 73.500000 C 223.734375 73.199219 224.183594 72.750000 224.449219 72.148438 C 224.714844 71.515625 224.714844 70.867188 224.449219 70.199219 C 224.183594 69.535156 223.734375 69.082031 223.101562 68.851562 C 222.464844 68.582031 221.816406 68.582031 221.148438 68.851562 M 276.101562 129.250000 C 275.601562 130.550781 275.433594 131.867188 275.601562 133.199219 C 275.800781 134.500000 276.300781 135.683594 277.101562 136.750000 C 277.898438 137.816406 278.949219 138.617188 280.250000 139.148438 C 281.550781 139.683594 282.867188 139.851562 284.199219 139.648438 C 285.500000 139.449219 286.683594 138.949219 287.750000 138.148438 C 288.816406 137.351562 289.617188 136.300781 290.148438 135.000000 C 290.683594 133.699219 290.851562 132.382812 290.648438 131.050781 C 290.449219 129.750000 289.949219 128.566406 289.148438 127.500000 C 288.351562 126.464844 287.300781 125.667969 286.000000 125.101562 C 284.699219 124.601562 283.382812 124.433594 282.050781 124.601562 C 280.750000 124.800781 279.582031 125.300781 278.550781 126.101562 C 277.484375 126.898438 276.667969 127.949219 276.101562 129.250000 M 259.199219 67.250000 C 258.066406 66.816406 256.984375 66.816406 255.949219 67.250000 C 254.917969 67.683594 254.167969 68.449219 253.699219 69.550781 C 253.265625 70.683594 253.265625 71.765625 253.699219 72.800781 C 254.132812 73.832031 254.898438 74.582031 256.000000 75.050781 C 257.101562 75.484375 258.167969 75.484375 259.199219 75.050781 C 260.234375 74.617188 261.000000 73.851562 261.500000 72.750000 C 261.898438 71.648438 261.882812 70.582031 261.449219 69.550781 C 261.015625 68.515625 260.265625 67.750000 259.199219 67.250000 M 279.898438 114.398438 C 279.933594 116.332031 280.582031 117.933594 281.851562 119.199219 C 283.117188 120.464844 284.699219 121.117188 286.601562 121.148438 C 288.535156 121.117188 290.132812 120.464844 291.398438 119.199219 C 292.667969 117.933594 293.316406 116.332031 293.351562 114.398438 C 293.316406 112.500000 292.667969 110.917969 291.398438 109.648438 C 290.132812 108.382812 288.535156 107.734375 286.601562 107.699219 C 284.699219 107.734375 283.117188 108.382812 281.851562 109.648438 C 280.582031 110.917969 279.933594 112.500000 279.898438 114.398438 M 239.851562 64.300781 C 238.917969 64.332031 238.132812 64.667969 237.500000 65.300781 C 236.867188 65.933594 236.535156 66.714844 236.500000 67.648438 C 236.535156 68.617188 236.867188 69.417969 237.500000 70.050781 C 238.132812 70.683594 238.917969 71.015625 239.851562 71.050781 C 240.816406 71.015625 241.617188 70.683594 242.250000 70.050781 C 242.882812 69.417969 243.214844 68.617188 243.250000 67.648438 C 243.214844 66.714844 242.882812 65.933594 242.250000 65.300781 C 241.617188 64.667969 240.816406 64.332031 239.851562 64.300781 M 266.949219 141.500000 C 265.851562 142.632812 265.117188 143.917969 264.750000 145.351562 C 264.417969 146.785156 264.433594 148.199219 264.800781 149.601562 C 265.167969 151.035156 265.882812 152.316406 266.949219 153.449219 C 268.082031 154.550781 269.367188 155.285156 270.800781 155.648438 C 272.199219 156.015625 273.617188 156.015625 275.050781 155.648438 C 276.484375 155.285156 277.765625 154.550781 278.898438 153.449219 C 280.000000 152.316406 280.734375 151.035156 281.101562 149.601562 C 281.464844 148.199219 281.464844 146.785156 281.101562 145.351562 C 280.734375 143.917969 280.000000 142.632812 278.898438 141.500000 C 277.765625 140.398438 276.484375 139.667969 275.050781 139.300781 C 273.648438 138.964844 272.234375 138.984375 270.800781 139.351562 C 269.367188 139.714844 268.082031 140.433594 266.949219 141.500000 M 276.500000 84.949219 C 275.464844 85.917969 274.285156 86.398438 272.949219 86.398438 C 271.582031 86.398438 270.382812 85.917969 269.351562 84.949219 C 268.351562 83.917969 267.851562 82.714844 267.851562 81.351562 C 267.851562 80.015625 268.351562 78.832031 269.351562 77.800781 C 270.382812 76.800781 271.582031 76.300781 272.949219 76.300781 C 274.285156 76.300781 275.464844 76.800781 276.500000 77.800781 C 277.500000 78.832031 278.000000 80.015625 278.000000 81.351562 C 278.000000 82.714844 277.500000 83.917969 276.500000 84.949219 "/>
  </g>
  <g id="surface4">
    <text style="fill:rgb(0,47,101)" font-family="Kabel Bk BT" font-size="50" id="0" transform="matrix(2.02606201171875,0,0,2.02606201171875,188,72.9) translate(2,50.1)" xml:space="preserve"><![CDATA[iricent]]></text>
  </g>
</svg>